# xmcd CD database file
#
# Track frame offsets:
#	150
#	16792
#	25990
#	45580
#	63145
#	73782
#	83150
#	89135
#	98495
#	114495
#	118750
#	121467
#	127437
#	136912
#	140457
#	159502
#	176162
#
# Disc length: 2595 seconds
#
# Revision: 3
# Processed by: cddbd v1.5.2PL0 Copyright (c) Steve Scherf et al.
# Submitted via: CDex 1.70beta2
#
DISCID=ef0a2111
DTITLE=横山菁児 - 聖闘士聖矢 ETERNAL EDITION File 03 劇場版「聖闘士聖矢」オリジナル・サウンドトラック篇
DYEAR=2003
DGENRE=
TTITLE0=ペガサス幻想(Instrumental Version,Full Size)
TTITLE1=プロローグ(劇I M2,M3,M4,M5,M6)
TTITLE2=邪悪神エリス(劇I M7,M28,M37)
TTITLE3=不吉なる彗星レパルス(劇I M8A,M8B,M8C,M9,M10,M11)
TTITLE4=沙織、捕らわる(劇I M12,M13,M14)
TTITLE5=劇場版『聖闘士星矢』ブリッジ・コレクション(劇I M40A,I～III,M40B,I～II,M40C,I～II,M40D,I～II,40E,40FハープONLY)
TTITLE6=5人の亡霊聖闘士(M15,M16,M17,M18)
TTITLE7=夢の中に(劇I M19)
TTITLE8=捕囚(劇I M20,M21A,M21B,M22,M25,M26B)
TTITLE9=突入せよ!聖闘士(劇I M27,M29,M30)
TTITLE10=亡霊聖闘士ジャガー(劇I M1,M32)
TTITLE11=アテナと聖闘士たち(劇I M33)
TTITLE12=集え!女神のもとに(劇I M34)
TTITLE13=射手座の戦士(劇I M35)
TTITLE14=闘いの果て(劇I M36,M38,M39)
TTITLE15=ペガサス幻想 Pegasus Fantasy(Off Vocal version)
TTITLE16=永遠ブルー Blue Forever(Off Vocal version)
EXTD=YEAR: 2003
EXTT0=
EXTT1=
EXTT2=
EXTT3=
EXTT4=
EXTT5=
EXTT6=
EXTT7=
EXTT8=
EXTT9=
EXTT10=
EXTT11=
EXTT12=
EXTT13=
EXTT14=
EXTT15=
EXTT16=
PLAYORDER=
